<svg xmlns="http://www.w3.org/2000/svg" viewBox="0 0 500 500"><g id="freepik--background-complete--inject-16"><g><g><g><path d="M443.92039,330.1975h-180.7461c-3.2324,0-5.86229-2.6298-5.86229-5.8623V61.0618c0-3.2324,2.62989-5.8618,5.86229-5.8618h180.7461c3.2324,0,5.8623,2.6294,5.8623,5.8618V324.3352c0,3.2325-2.6299,5.8623-5.8623,5.8623ZM263.17429,55.45c-3.0947,0-5.61229,2.5176-5.61229,5.6118V324.3352c0,3.0948,2.51759,5.6123,5.61229,5.6123h180.7461c3.0947,0,5.6123-2.5175,5.6123-5.6123V61.0618c0-3.0942-2.5176-5.6118-5.6123-5.6118h-180.7461Z" style="fill:#e0e0e0;"></path><path d="M235.49269,330.1975H54.7461c-3.2324,0-5.8618-2.6298-5.8618-5.8623V61.0618c0-3.2324,2.6294-5.8618,5.8618-5.8618H235.49269c3.2324,0,5.86231,2.6294,5.86231,5.8618V324.3352c0,3.2325-2.62991,5.8623-5.86231,5.8623ZM54.7461,55.45c-3.0942,0-5.6118,2.5176-5.6118,5.6118V324.3352c0,3.0948,2.5176,5.6123,5.6118,5.6123H235.49269c3.0947,0,5.61231-2.5175,5.61231-5.6123V61.0618c0-3.0942-2.51761-5.6118-5.61231-5.6118H54.7461Z" style="fill:#e0e0e0;"></path></g><rect x="0" y="391.2669" width="500" height=".25" style="fill:#e0e0e0;"></rect></g><rect x="51.6724" y="405.5314" width="16.06" height=".25" style="fill:#e0e0e0;"></rect><rect x="170.3524" y="402.8214" width="53.53" height=".25" style="fill:#e0e0e0;"></rect><rect x="68.7324" y="414.8214" width="36.25" height=".25" style="fill:#e0e0e0;"></rect><rect x="378.35239" y="402.6914" width="43.19" height=".25" style="fill:#e0e0e0;"></rect><rect x="430.45239" y="402.6914" width="6.33" height=".25" style="fill:#e0e0e0;"></rect><rect x="316.21239" y="408.9214" width="53.89" height=".25" style="fill:#e0e0e0;"></rect></g><g><path d="M424.01629,270.5926h-13.3146v-28.8482c0-2.2166,1.7967-4.0133,4.01331-4.0133h5.33519c2.2165,0,4.0133,1.7967,4.0133,4.0133v28.8482h-.0472Z" style="fill:#f5f5f5;"></path><rect x="413.44019" y="232.6082" width="7.8494" height="5.1111" rx=".6728" ry=".6728" style="fill:#e6e6e6;"></rect><path d="M436.05319,270.6945h-9.6494v-20.9068c0-1.6064,1.30221-2.9085,2.9085-2.9085h3.8666c1.6063,0,2.9085,1.3021,2.9085,2.9085v20.9068h-.0342Z" style="fill:#f5f5f5;"></path><rect x="428.38849" y="243.1665" width="5.6886" height="3.7041" rx=".4876" ry=".4876" style="fill:#e6e6e6;"></rect><g><path d="M406.48779,270.5807h-11.6739v-25.3189c0-1.9557,1.5854-3.5411,3.54111-3.5411h4.63879c1.9557,0,3.54121,1.5854,3.54121,3.5411v25.3189h-.04721Z" style="fill:#f5f5f5;"></path><rect x="397.19829" y="237.2826" width="6.8933" height="4.4854" rx=".5902" ry=".5902" style="fill:#e6e6e6;"></rect></g></g><g><path d="M93.246,270.5926h-13.3146v-28.8482c0-2.2166,1.7968-4.0133,4.0133-4.0133h5.3353c2.2164,0,4.0133,1.7967,4.0133,4.0133v28.8482h-.0473Z" style="fill:#f5f5f5;"></path><rect x="82.67" y="232.6082" width="7.8494" height="5.1111" rx=".6728" ry=".6728" style="fill:#e6e6e6;"></rect><path d="M105.2829,270.6945h-9.6493v-20.9068c0-1.6064,1.3021-2.9085,2.9085-2.9085h3.8666c1.6063,0,2.9085,1.3021,2.9085,2.9085v20.9068h-.0343Z" style="fill:#f5f5f5;"></path><rect x="97.6183" y="243.1665" width="5.6886" height="3.7041" rx=".4876" ry=".4876" style="fill:#e6e6e6;"></rect><g><path d="M75.7176,270.5807h-11.6739v-25.3189c0-1.9557,1.5854-3.5411,3.5411-3.5411h4.6388c1.9557,0,3.5411,1.5854,3.5411,3.5411v25.3189h-.0471Z" style="fill:#f5f5f5;"></path><rect x="66.428" y="237.2826" width="6.8934" height="4.4854" rx=".5902" ry=".5902" style="fill:#e6e6e6;"></rect></g><rect x="112.6136" y="257.2776" width="21.5087" height="13.4169" style="fill:#e0e0e0;"></rect></g><g><path d="M447.418,124.3608h-12.79181v-27.7155c0-2.1295,1.7262-3.8557,3.8557-3.8557h5.1258c2.1294,0,3.8557,1.7262,3.8557,3.8557v27.7155h-.04539Z" style="fill:#f5f5f5;"></path><rect x="437.25719" y="87.8679" width="7.5412" height="4.9104" rx=".6464" ry=".6464" style="fill:#e6e6e6;"></rect><g><path d="M430.57779,124.3494h-11.2155v-24.3248c0-1.8789,1.5231-3.402,3.402-3.402h4.45671c1.87889,0,3.40209,1.5231,3.40209,3.402v24.3248h-.0453Z" style="fill:#f5f5f5;"></path><rect x="421.653" y="92.3587" width="6.62269" height="4.3093" rx=".567" ry=".567" style="fill:#e6e6e6;"></rect></g><path d="M474.16959,124.3608h-21.7278v-25.833c0-2.3988,1.9445-4.3433,4.3433-4.3433h13.0526c2.3987,0,4.3432,1.9445,4.3432,4.3433v25.833h-.0113Z" style="fill:#e6e6e6;"></path><path d="M466.74179,97.3937h-6.8609v-8.1536c0-.7578,.6144-1.3722,1.3722-1.3722h4.1165c.7578,0,1.3722,.6144,1.3722,1.3722v8.1536h0Z" style="fill:#e6e6e6;"></path><rect x="416.72889" y="123.2986" width="61.469" height="9.0446" style="fill:#e0e0e0;"></rect></g><rect x="255.51819" y="278.1207" width="42.8684" height="13.8769" style="fill:#f5f5f5;"></rect><g><rect x="21.5095" y="198.0072" width="42.8684" height="13.8769" style="fill:#ebebeb;"></rect><rect x="38.6799" y="211.4882" width="42.8684" height="13.8769" style="fill:#f5f5f5;"></rect></g><g><rect x="410.02289" y="174.9519" width="42.8684" height="13.8769" style="fill:#ebebeb;"></rect><rect x="427.19329" y="188.4329" width="42.8684" height="13.8769" style="fill:#f5f5f5;"></rect></g><g><rect x="231.65669" y="353.9611" width="42.86831" height="13.877" style="fill:#ebebeb;"></rect><rect x="248.82709" y="367.4421" width="42.8684" height="13.877" style="fill:#f5f5f5;"></rect></g><rect x="44.9938" y="353.9611" width="42.8684" height="13.877" style="fill:#ebebeb;"></rect><rect x="136.3683" y="28.2218" width="42.8684" height="13.877" style="fill:#ebebeb;"></rect><rect x="350.37869" y="42.3851" width="42.8684" height="13.8769" style="fill:#ebebeb;"></rect><rect x="48.8843" y="270.6945" width="400.64839" height="17.7138" style="fill:#ebebeb;"></rect><rect x="73.3214" y="288.4083" width="17.198" height="158.0677" style="fill:#e0e0e0;"></rect><rect x="390.372" y="288.4083" width="17.19789" height="158.0677" style="fill:#e0e0e0;"></rect><rect x="90.5194" y="288.4083" width="302.52539" height="33.7959" style="fill:#e0e0e0;"></rect><rect x="92.9966" y="293.0083" width="150.93979" height="24.5959" style="fill:#ebebeb;"></rect><rect x="253.72439" y="293.0083" width="135.03261" height="24.5959" style="fill:#ebebeb;"></rect></g><g id="freepik--Shadow--inject-16"><path d="M458.875,466.8376c0,3.3867-93.51651,6.1322-208.875,6.1322s-208.875-2.7455-208.875-6.1322,93.5165-6.1323,208.875-6.1323,208.875,2.7455,208.875,6.1323Z" style="fill:#f5f5f5;"></path></g><g id="freepik--Plant--inject-16"><g><g><path d="M446.05219,299.2396c-17.6163,20.6065-22.7615,51.1086-12.8793,76.3535,10.98-9.7998,18.7119-24.7374,19.2012-37.8023,.4895-13.0651-2.9303-25.9246-6.3219-38.5512Z" style="fill:#407BFF;"></path><path d="M442.97909,377.9746c-5.9775,9.159-8.8386,20.3123-8.0084,31.2178,9.52331-3.3158,17.9187-14.073,22.9519-22.8109,5.03341-8.738,7.8477-18.5523,10.4082-28.3057-10.3166,3.6305-19.3744,10.7399-25.3517,19.8988Z" style="fill:#407BFF;"></path><path d="M440.76978,335.22201c-7.08676,25.46832-10.69442,51.88843-10.66129,78.32603,.00937,7.47488,.31324,14.94658,.89709,22.39846,.03745,.47803,.78777,.48206,.75,0-2.05988-26.29105-.53767-52.83879,4.55644-78.7156,1.44378-7.33407,3.17722-14.60844,5.18097-21.80951,.12959-.46571-.5938-.66447-.72321-.19938h0Z" style="fill:#263238;"></path><path d="M431.22869,417.81159c7.23036-17.21046,16.73479-33.33251,27.7209-48.40292,.28467-.3905-.36577-.76514-.6476-.37854-11.02794,15.12779-20.5392,31.30749-27.7965,48.58208-.18668,.44435,.53877,.6384,.72321,.19938h0Z" style="fill:#263238;"></path><path d="M420.96259,392.2459c4.9842,7.6371,7.37,16.9373,6.6778,26.0304-7.941-2.7646-14.9413-11.7344-19.1383-19.0203-4.1969-7.2861-6.5436-15.4696-8.6787-23.6023,8.6024,3.0272,16.1551,8.9552,21.1392,16.5922Z" style="fill:#407BFF;"></path><path d="M431.01369,424.29921c-5.93153-14.11079-13.76897-27.18991-22.77389-39.54288-.28152-.38619-.93256-.01236-.6476,.37854,8.96301,12.29547,16.79376,25.31717,22.69829,39.36372,.18422,.43826,.9103,.2457,.72321-.19938h0Z" style="fill:#263238;"></path><path d="M431.28865,428.99807c11.2058-11.52915,22.64819-22.82535,33.854-34.3545,.3366-.34631-.19318-.87721-.53033-.53033-11.2058,11.52915-22.64819,22.82535-33.854,34.3545-.3366,.34631,.19318,.87721,.53033,.53033h0Z" style="fill:#263238;"></path><path d="M465.55549,389.3376c-9.7224,9.3761-18.5803,19.6483-26.4249,30.6438l1.7789,.0005c7.3998-.3471,14.5834-3.9977,19.2261-9.7703,4.6427-5.7727,6.6679-13.5718,5.4199-20.874Z" style="fill:#407BFF;"></path><g><path d="M419.5222,366.98317c4.17447,6.82707,8.1076,13.79801,11.79249,20.9013,.22234,.42859,.86978,.04975,.6476-.37854-3.68489-7.10329-7.61801-14.07423-11.79249-20.9013-.2514-.41115-.90032-.03477-.6476,.37854h0Z" style="fill:#263238;"></path><path d="M409.46589,332.5079c-1.59189,7.1611-3.17089,16.4732-3.1871,23.93-.0164,7.4568,2.2588,14.7326,6.4961,19.7292,4.2372,4.9966,12.7908,7.1853,16.23911,4.3262l-19.54811-47.9854Z" style="fill:#407BFF;"></path></g></g><rect x="409.24779" y="432.318" width="42.4711" height="7.8712" style="fill:#263238;"></rect><polygon points="444.84049 468.23 418.46779 468.23 413.67519 438.3854 448.62649 438.3854 444.84049 468.23" style="fill:#263238;"></polygon><polygon points="413.98829 440.3353 448.37919 440.3353 447.95059 443.7139 414.531 443.7139 413.98829 440.3353" style="opacity:.2;"></polygon></g></g><g id="freepik--Barber_pole--inject-16"><g><rect x="45.1341" y="70.9693" width="36.8563" height="88.6576" style="fill:#407BFF;"></rect><rect x="45.1341" y="70.9693" width="36.8563" height="88.6576" style="fill:#fff; opacity:.8;"></rect><polygon points="61.5508 55.3339 45.134 69.8125 45.134 94.7802 81.5231 65.0022 61.5508 55.3339" style="fill:#263238;"></polygon><rect x="40.6343" y="67.7451" width="45.8559" height="6.4485" style="fill:#407BFF;"></rect><path d="M62.1935,49.3236h2.9208c9.31417,0,16.8761,7.56193,16.8761,16.8761v4.7696H45.3175v-4.7697c0-9.31412,7.56188-16.876,16.876-16.876Z" style="fill:#407BFF;"></path><polygon points="81.9904 81.8253 45.1341 114.3305 45.1341 139.2982 81.9904 108.2063 81.9904 81.8253" style="fill:#407BFF;"></polygon><polygon points="45.134 159.5551 45.3786 164.1396 67.8783 165.3358 81.9904 153.4309 81.9904 127.0499 45.134 159.5551" style="fill:#263238;"></polygon><g><rect x="40.6343" y="157.8729" width="45.8559" height="6.4485" transform="translate(127.1245 322.1943) rotate(180)" style="fill:#407BFF;"></rect><path d="M62.0102,161.0972h2.9207c9.31417,0,16.8761,7.56193,16.8761,16.8761v4.7696H45.1341v-4.7696c0-9.31417,7.56193-16.8761,16.8761-16.8761Z" transform="translate(126.9411 343.8401) rotate(180)" style="fill:#407BFF;"></path></g><path d="M45.1341,164.4065h36.8563s-11.9985,1.6626-18.0292,1.6703c-9.6859,.0123-18.8271-1.6703-18.8271-1.6703Z" style="opacity:.3;"></path><path d="M81.9904,67.7451H45.1341s11.9985-1.6626,18.0292-1.6703c9.6859-.0123,18.8271,1.6703,18.8271,1.6703Z" style="opacity:.3;"></path><rect x="49.8761" y="74.1936" width="6.1863" height="83.6793" style="fill:#fff; opacity:.5;"></rect></g></g><g id="freepik--Character_1--inject-16"><g id="freepik--Mirror_1--inject-16"><g><path d="M245.03189,99.1588h.9452v5.8578h-.9452v-5.8578Zm0-4.6138h.9452v-14.7828h-.9452v14.7828Z" style="fill:#407BFF;"></path><polygon points="116.8288 52.55878 113.2851 52.55878 113.2851 241.24261 116.8288 241.24261 242.66882 241.24261 242.66882 52.55878 116.8288 52.55878" style="fill:#407BFF;"></polygon><path d="M222.08269,213.835l11.6586-41.544s-.2344,.2969-.6344,.8052c-.8987-7.0932-2.8565-21.7637-4.2887-26.885-1.9167-6.8543-9.5088-10.9334-9.5088-10.9334-.0508,.0535-4.0936-1.558-8.4181-3.3029l-5.161-2.4206c-.0197,.0372-.0418,.1413-.0662,.3036-2.9323-1.191-5.1712-2.1055-5.1712-2.1055l-.2245-.0504c-.0773-1.9941-.09239-4.4055,.0188-6.7201,.0077-.1115,.0137-.2184,.0142-.3119,.0575-1.0803,.1437-2.1317,.265-3.0999,.0055-.0407,.0109-.0811,.01661-.1217,.01069-.0824,.02339-.1599,.03449-.241,5.748-1.2153,10.79-5.8667,12.0591-12.3712,1.0035-5.1427,.9309-11.9162-.81959-17.8839,.37849,.2068,.76849,.4893,1.14739,.8841,.1293,.1348,.3124,.1865,.48361,.1543,.10069-.0187,.19709-.0665,.27639-.1437,.21461-.2077,.22261-.5499,.0175-.7638-.7811-.8141-1.6156-1.2503-2.3573-1.4793-.8129-2.3577-1.9058-4.5536-3.3235-6.4254l.005,.0035c.16791,.0645,1.6626-2.0663-3.8554-4.8836-7.3509-3.7531-16.3194-2.9494-20.3203,.2126s-7.1924,8.0399-6.7556,12.8511c.0504,1.5379,.405,3.2338,.9532,4.9699-1.3737,1.291-1.9726,3.3941-1.3916,5.4705,.8473,3.0281,3.0204,5.3692,5.3008,6.5831,.2312,.1231,.4514,.2164,.6643,.2904,.6669,2.4796,1.6273,4.6521,3.1504,6.641,.3459,6.2085-.2196,10.6174-.7237,13.1424l-4.8487,.1508,.0147-.1313-5.9165,.3148-11.2216,.3489s-6.482-.322-11.0231,6.5061c-.2874,.4321-.6041,1.0376-.9432,1.7814-.6139-3.2779-.8315-5.5839-1.879-6.1147-.8119-.4115-1.9919-.0694-1.9919-.0694-.2571,.2302-2.5938,1.2414-1.9791,4.8595,.2927,1.723,1.4297,5.5618,2.8424,9.5229-4.1652,12.8953-9.1037,32.791-9.1037,32.791,.8796-.6224,2.5385-1.1655,4.6106-1.6377-.0047,.0602-1.0224,13.3976,3.2375,16.9667,.9434,.7904,3.2318,1.742,6.4475,2.7088-1.3427,10.5321-4.2346,31.6949-4.876,31.6949-.1888,0-.9304,6.4065-1.9676,16.3468h76.5001l-.0847-1.8506-.8632-24.8133Zm-15.8444-136.7433l.0425,.0506-.0655-.0619c.015,.0049,.023,.0113,.023,.0113Z" style="fill:#407BFF; opacity:.2;"></path></g></g><g><polygon points="142.6953 429.424 132.8425 457.0479 123.9123 454.0504 126.9925 424.893 142.6953 429.424" style="fill:#ce7a63;"></polygon><g><path d="M133.8054,468.6693l-8.0972-.0628s-1.6305-.9168-2.5928-.8039c-.9593,.1146-4.2985,.7489-4.2985,.7489l-21.5019-.1683c.1785-.9351,.397-1.7665,.6442-2.5042,.3012-.8991,.6491-1.6598,1.0338-2.3026,1.3487-2.2482,3.1719-3.0373,5.1496-3.1513,3.0123-.1728,12.5349-6.6679,12.5349-6.6679,0,0,3.4463-1.2217,3.6604-5.0216,.0812-1.4246,2.119-3.1484,3.084-3.2837,1.9684-.2796,3.0526,1.0227,3.324,3.0667l.3126,2.3745,4.5471-.6995s4.6378-2.3793,4.3965-.0345c-.1382,1.3382-.9581,7.2965-1.4793,12.0243-.1223,1.102-.2362,2.1447-.3365,3.0595l-.0022,.0008c-.2231,2.0304-.3787,3.4256-.3787,3.4256Z" style="fill:#263238;"></path><g style="opacity:.4;"><path d="M133.8054,468.6693l-8.0972-.0628s-1.6305-.9168-2.5928-.8039c-.9593,.1146-4.2985,.7489-4.2985,.7489l-21.5019-.1683c.1785-.9351,.397-1.7665,.6442-2.5042,.3012-.8991,.6491-1.6598,1.0338-2.3026,1.3487-2.2482,3.1719-3.0373,5.1496-3.1513,3.0123-.1728,12.5349-6.6679,12.5349-6.6679,0,0,3.4463-1.2217,3.6604-5.0216,.0812-1.4246,2.119-3.1484,3.084-3.2837,1.9684-.2796,3.0526,1.0227,3.324,3.0667l.3126,2.3745,4.5471-.6995s4.6378-2.3793,4.3965-.0345c-.1382,1.3382-.9581,7.2965-1.4793,12.0243-.1223,1.102-.2362,2.1447-.3365,3.0595l-.0022,.0008c-.2231,2.0304-.3787,3.4256-.3787,3.4256Z"></path></g><g style="opacity:.3;"><path d="M97.3151,468.3832l21.5017,.1682s3.3395-.6342,4.2986-.7488c.9624-.1129,2.5927,.8039,2.5927,.8039l8.0974,.0628s.1555-1.3952,.3786-3.4256l-36.2249,.6353c-.2472,.7377-.4657,1.5691-.6441,2.5042Z" style="fill:#fff;"></path></g><path d="M111.3091,456.6483c.1304-.1306,.3304-.1436,.4807-.0379,.6892,.4831,1.266,1.1623,1.6555,2.0114,.2054,.4476-.4246,.8732-.6319,.4212-.346-.7546-.8507-1.3552-1.4527-1.7787-.2009-.1415-.2323-.4351-.0575-.6102l.0059-.0058Z" style="fill:#fff;"></path><path d="M113.5419,455.3055c.1304-.1307,.3304-.1434,.4808-.0379,.6891,.4832,1.2661,1.1624,1.6555,2.0115,.2053,.4476-.4246,.873-.6318,.4212-.3462-.7546-.8508-1.3551-1.4528-1.7786-.2011-.1416-.2323-.4351-.0574-.6103l.0057-.0059Z" style="fill:#fff;"></path><path d="M115.8439,454.0537c.1304-.1308,.3305-.1435,.4808-.038,.6891,.4831,1.2661,1.1625,1.6555,2.0115,.2053,.4477-.4246,.8732-.6318,.4211-.3461-.7546-.8505-1.3549-1.4526-1.7785-.2013-.1417-.2325-.4352-.0575-.6104l.0056-.0057Z" style="fill:#fff;"></path></g><g><polygon points="206.06479 424.5036 210.16209 454.5658 219.95939 455.0609 223.13169 426.0802 206.06479 424.5036" style="fill:#ce7a63;"></polygon><path d="M228.30119,468.5228h-21.9144s-.4781-.9204,.0683-3.3706c.0833-.3817,.19191-.8014,.3336-1.2588,.0076-.023,.0126-.0458,.0202-.0685,.2048-.6778,.44011-1.512,.6902-2.4123,1.00391-3.6688,2.1847-8.4626,2.1847-8.4626,0,0,3.6461-7.8056,7.9115-5.8562,3.7424,1.7093,2.85471,6.6019,2.85471,6.6019,0,0,.36679,2.8725,3.20379,5.4059,1.7547,1.5651,3.4993,2.7765,4.3389,4.7233,.1567,.364,.2806,.7511,.3691,1.1707,.01,.0505,.0203,.1037,.0279,.1566,.1745,.9381,.1642,2.0381-.0885,3.3706Z" style="fill:#263238;"></path><g style="opacity:.4;"><path d="M228.30119,468.5228h-21.9144s-.4781-.9204,.0683-3.3706c.0833-.3817,.19191-.8014,.3336-1.2588,.0076-.023,.0126-.0458,.0202-.0685,.2048-.6778,.44011-1.512,.6902-2.4123,1.00391-3.6688,2.1847-8.4626,2.1847-8.4626,0,0,3.6461-7.8056,7.9115-5.8562,3.7424,1.7093,2.85471,6.6019,2.85471,6.6019,0,0,.36679,2.8725,3.20379,5.4059,1.7547,1.5651,3.4993,2.7765,4.3389,4.7233,.1567,.364,.2806,.7511,.3691,1.1707,.01,.0505,.0203,.1037,.0279,.1566,.1745,.9381,.1642,2.0381-.0885,3.3706Z"></path></g><g style="opacity:.3;"><path d="M206.45509,465.1522c-.5464,2.4502-.0683,3.3706-.0683,3.3706h21.9144c.2527-1.3325,.263-2.4325,.0885-3.3706h-21.9346Z" style="fill:#fff;"></path></g><path d="M219.56779,454.9245c-1.2327-.9603-2.84979-.8358-3.9585,.2454-.2982,.2909-.7558-.1661-.4574-.4573,1.3837-1.3495,3.3593-1.4249,4.8732-.2455,.32791,.2556-.1328,.7105-.4573,.4574h0Z" style="fill:#fff;"></path><path d="M220.18649,456.9711c-1.2327-.9603-2.85-.8358-3.95849,.2455-.29821,.291-.75591-.1659-.45731-.4574,1.3836-1.3495,3.3591-1.4248,4.8731-.2454,.3279,.2554-.1327,.7102-.4573,.4573h0Z" style="fill:#fff;"></path><path d="M220.80769,458.8528c-1.2326-.9604-2.8498-.8359-3.9585,.2455-.298,.2909-.7559-.1661-.45719-.4573,1.38359-1.3496,3.35919-1.4249,4.87289-.2457,.32811,.2557-.1326,.7104-.4572,.4575h0Z" style="fill:#fff;"></path></g><g><g><path d="M155.0212,238.3997s-17.0056,84.7233-20.8371,109.6733c-2.5045,16.3087-17.3117,89.732-17.3117,89.732l24.8456,5.6668s24.5061-92.4274,26.2736-101.3099c1.7673-8.8825,23.9261-72.9112,23.9261-72.9112l-3.939-34.0869-32.9575,3.2359Z" style="fill:#407BFF;"></path><path d="M229.60819,307.1713c2.5674-22.6499,.75481-70.6794,.75481-70.6794l-45.5106-2.2742s6.4667,46.4884,12.0749,70.3865l32.6809,2.5671Z" style="fill:#407BFF;"></path><g style="opacity:.2;"><path d="M191.6365,246.378c-.5017,7.694-.9915,15.4005-1.4932,23.0943-.0239,.4965-.7645,.4965-.7406,0,.2628-3.9462,.5136-7.9049,.7645-11.8635-1.8278,1.4644-3.9661-.3103-4.5635-2.271-.9795-3.1769-.6091-6.9494,.1553-10.1263,.1195-.4841,.8363-.273,.7168,.1986-.5376,2.2336-.7646,4.517-.6092,6.8129,.0716,1.1665,.1792,2.5068,.7049,3.5739,.5852,1.1914,2.0666,2.1965,3.2493,1.117,.1314-.1116,.2747-.1241,.3943-.0621,.2269-3.4872,.4538-6.9867,.6809-10.4738,.0238-.4963,.7645-.4963,.7405,0Z"></path></g><g style="opacity:.2;"><path d="M213.417,247.6887c-.10461,10.1995,7.45349,18.7413,17.22739,19.5428,.4685,.0385,.4661-.7205,0-.7585-9.3786-.7692-16.5972-9.0235-16.4972-18.7843,.0051-.4883-.72519-.4886-.73019,0h0Z"></path></g><path d="M205.62529,445.464l20.2838,.0359c2.6775-32.5095,4.3956-146.7001,4.3956-146.7001l-38.387-21.1868s4.667,49.6261,6.4986,66.0921c0,0,3.3365,78.8589,7.209,101.7589Z" style="fill:#407BFF;"></path></g><polygon points="198.75509 351.2491 199.087 358.2185 229.13779 358.8086 229.30959 351.2491 198.75509 351.2491" style="opacity:.3;"></polygon><path d="M147.657,349.8047s-2.2788,8.3506-1.8136,7.6529c.4651-.6977,18.3828,.0414,18.3828,.0414l1.8151-7.1746-18.3843-.5197Z" style="opacity:.3;"></path></g><g><path d="M166.7952,129.4923l3.5745-6.4998,22.7944-.7087,14.7458,3.3122s18.7069,7.6409,18.8165,7.5255l-5.0105,48.2103-2.301,28.9938-56.4293-3.2608,3.8096-77.5725Z" style="fill:#263238;"></path><path d="M166.7952,129.4923l3.5745-6.4998,22.7944-.7087,14.7458,3.3122s18.7069,7.6409,18.8165,7.5255l-5.0105,48.2103-2.301,28.9938-56.4293-3.2608,3.8096-77.5725Z" style="fill:#fff; opacity:.8;"></path><path d="M147.2891,172.263s9.1645-36.9214,13.0545-42.7707c4.541-6.8281,11.023-6.5061,11.023-6.5061l3.1162,45.05s-22.88,1.1741-27.1937,4.2268Z" style="fill:#263238;"></path><path d="M147.2891,172.263s9.1645-36.9214,13.0545-42.7707c4.541-6.8281,11.023-6.5061,11.023-6.5061l3.1162,45.05s-22.88,1.1741-27.1937,4.2268Z" style="fill:#fff; opacity:.8;"></path><path d="M226.72639,133.1215s7.592,4.079,9.5089,10.9334c1.9168,6.8543,4.7759,30.8211,4.7759,30.8211l-20.1453,.6426,5.8605-42.3971Z" style="fill:#263238;"></path><path d="M226.72639,133.1215s7.592,4.079,9.5089,10.9334c1.9168,6.8543,4.7759,30.8211,4.7759,30.8211l-20.1453,.6426,5.8605-42.3971Z" style="fill:#fff; opacity:.8;"></path></g><g><path d="M161.4802,184.5069c.0057,.954-4.7223,37.4888-5.5651,37.4888-.8427,0-12.7056,127.6832-12.7056,127.6832l92.4568,2.6137-5.30329-115.8007-1.86911-53.7219-4.6747-31.5545s-49.7128-4.8707-48.9007-4.8707c.812,0-13.4383,38.1621-13.4383,38.1621Z" style="fill:#263238;"></path><polygon points="181.7945 122.6373 176.6141 153.0498 184.1396 154.2806 187.7112 122.3225 181.7945 122.6373" style="fill:#407BFF;"></polygon><path d="M213.14729,127.3979c-.4096,.7766-1.9139,30.1921-1.9139,30.1921h7.6582v-27.498l-5.7443-2.6941Z" style="fill:#407BFF;"></path><g><path d="M174.6989,235.2839s.4636-2.396,.435-3.6022c-.0394-1.6633-1.1552-3.8401-3.3647-3.6324-2.2097,.2078-4.1005,2.3893-3.3959,5.0728s2.7846,3.5666,2.7846,3.5666c.4074,.6669,.7565,1.5126,1.0352,2.3164l2.8904-.0085-.118-.8151-.2666-2.8976Zm-2.9633-.0289c-1.1783-.0069-2.1257-1.3608-2.1159-3.024,.0098-1.6631,.973-3.0057,2.1513-2.9989,1.1784,.007,2.1257,1.3608,2.1159,3.024-.0097,1.6632-.9729,3.0058-2.1513,2.9989Z" style="fill:#407BFF;"></path><path d="M175.9158,238.1815l-.118,.8151,2.8904,.0085c.2787-.8038,.6278-1.6495,1.0352-2.3164,0,0,2.08-.8831,2.7846-3.5666,.7046-2.6835-1.1862-4.865-3.3959-5.0728-2.2095-.2077-3.3253,1.9691-3.3647,3.6324-.0286,1.2062,.435,3.6022,.435,3.6022l-.2666,2.8976Zm1.0786-5.9254c-.0098-1.6632,.9375-3.017,2.1158-3.024,1.1784-.0068,2.1416,1.3358,2.1514,2.9989,.0098,1.6632-.9376,3.0171-2.1159,3.024-1.1784,.0069-2.1416-1.3357-2.1513-2.9989Z" style="fill:#407BFF;"></path></g><path d="M163.0757,239.0051h57.1227v18.5953c0,14.50797-11.77863,26.2866-26.2866,26.2866h-4.5494c-14.50802,0-26.2867-11.77868-26.2867-26.2867v-18.5952h0Z" style="opacity:.3;"></path><path d="M182.4936,150.0032c0,1.0501-.7498,1.9013-1.6746,1.9013-.9249,0-1.6747-.8512-1.6747-1.9013,0-1.05,.7498-1.9013,1.6747-1.9013,.9248,0,1.6746,.8513,1.6746,1.9013Z" style="fill:#263238;"></path><ellipse cx="215.1863" cy="153.7612" rx="1.6747" ry="1.9013" style="fill:#263238;"></ellipse><path d="M207.07549,162.9565l-18.66549-3.2846c-.0576-.0102-.0961-.0651-.0859-.1227l.5064-2.8778c.0101-.0576,.0651-.0961,.1227-.086l18.6654,3.2847c.0576,.0101,.0961,.065,.0859,.1226l-.5064,2.8779c-.01009,.0576-.065,.0961-.1226,.0859Z" style="fill:#fff;"></path><path d="M190.4252,238.5927v-1.0294h3.8449v-.4711h-3.8449v-1.0293h3.8449v-.4712h-3.8449v-1.0293h3.8449v-.4711h-3.8449v-1.0294h3.8449v-.4711h-3.8449v-1.0293h3.8449v-.4711h-3.8449v-1.0294h3.8449v-.4711h-3.8449v-1.0293h3.8449v-.4712h-3.8449v-1.0293h3.8449v-.4712h-3.8449v-1.0293h3.8449v-1.1677h-4.626c-.7268,0-1.316,.5892-1.316,1.316v13.2972h5.942v-.4124h-3.8449Z" style="fill:#407BFF;"></path><rect x="200.75369" y="233.5203" width="8.128" height="5.4848" style="fill:#407BFF;"></rect></g><g><path d="M164.155,152.1652c.1803-.3158,3.4033-9.9941,3.4033-9.9941l-2.3237-.6986,4.2855-17.1136,4.178,1.0455-6.6555,27.5721-2.8876-.8113Z" style="fill:#263238;"></path><path d="M154.7359,125.0896c-.257,.2302-2.5937,1.2414-1.9791,4.8595s4.9495,16.565,7.7523,20.3855,5.9155,5.2021,6.5335,2.6419c.618-2.5603-.3313-2.2906-1.4165-5.0429-1.0852-2.7524-3.6594-4.8163-5.7391-11.3997-1.8781-5.945-1.6125-10.5912-3.1592-11.3749-.8119-.4115-1.9919-.0694-1.9919-.0694Z" style="fill:#407BFF;"></path><path d="M164.155,152.1652c.1803-.3158,3.4033-9.9941,3.4033-9.9941l-2.3237-.6986,4.2855-17.1136,4.178,1.0455-6.6555,27.5721-2.8876-.8113Z" style="fill:#fff; opacity:.4;"></path><path d="M222.32009,175.5186l-42.8448-17.9286-4.0329,10.6322s22.5771,16.7741,34.3266,25.4806c7.95329,5.8935,19.52779,3.2879,23.71939-5.6797,.1241-.2655,.2419-.5355,.353-.8099l3.116-12.2027-14.6373,.5081Z" style="fill:#ce7a63;"></path><path d="M159.5197,148.4783c.8582-1.2015,8.41,.8581,8.41,.8581,0,0,9.3607,3.4632,11.5456,8.2536l-4.0329,10.6322s-6.5688,.337-9.4865-1.3793c-2.9178-1.7164-6.8653-2.6603-7.1227-3.6043-.2575-.944,0-2.6603,1.0298-2.8319,0,0-1.9738-.7393-1.8022-2.0431,.1717-1.3038,1.7163-1.9045,1.7163-1.9045,0,0-2.1665-1.5447-1.7269-2.8319,.4397-1.2872,2.4993-1.1156,3.1-.8581,.6007,.2574,3.0036,.429,3.0036,.429,0,0-4.205-1.8879-4.5483-2.9177s-.0858-1.8021-.0858-1.8021Z" style="fill:#ce7a63;"></path></g><g><path d="M191.9072,124.8149s2.5255-6.9833,.9519-20.3485c.0029-.0134,.7237-.1995,.7265-.2132-.2123-1.8678-.4803-3.6059-.7538-5.1192-.0047-.0434-.0019-.0571-.0019-.0571l15.6447,13.6821c-1.0884,4.0089-.9369,12.1307-.6182,15.6029,0,0,1.1984,6.3921-6.8601,5.3207-5.88829-.7825-9.0891-8.8677-9.0891-8.8677Z" style="fill:#ce7a63;"></path><g><g style="opacity:.2;"><path d="M198.98779,114.6414c1.8261,2.6594,5.332,4.4467,8.6838,4.9108-.0138-.3051,.0477-.7532,.04741-1.0548-.00241-.4747,.08589-1.1899,.11709-1.6852,.0434-.6074,.1098-1.2649,.2142-1.8866,.0581-.2446,.1534-.1971,.2115-.4418l.11921-.5032-9.77341-4.6437c-.8957,.5059-1.0904,3.146,.3802,5.3045Z"></path></g><path d="M188.1312,88.0592c-1.1616-11.2106,9.5052-20.1621,20.5295-16.21,11.1894,4.0113,13.42331,20.631,11.4329,30.8306-2.211,11.332-15.869,17.061-24.7719,8.7414-5.9185-5.5308-6.0288-12.1513-7.1905-23.362h0Z" style="fill:#ce7a63;"></path><path d="M197.0424,81.2061c-1.5774-2.9406-5.8736-3.4657-9.1412-1.8068-1.0074,.5085-3.3386,2.9073-3.3094,5.8064,.1516,4.6222,3.0098,10.6643,5.8202,14.9728-.2095-.5813-.387-1.2051-.5418-1.8854-.5169-2.2698-1.1187-5.4126-1.6823-9.183,.8793,.1302,1.4879,.4464,2.0306,.8205,3.9567,2.728,5.2495,5.0026,7.2665,3.1506,1.65009-1.5182-.069-8.5768-.4426-11.8751Z" style="fill:#263238;"></path></g><path d="M184.1535,95.6461c.8472,3.0281,3.0203,5.3692,5.3007,6.5831,3.4303,1.8263,4.8348-1.941,4.6086-5.6234-.2036-3.3143-1.0549-7.3687-4.8476-7.6745-3.7365-.3011-6.0304,3.253-5.0617,6.7148Z" style="fill:#ce7a63;"></path><path d="M203.66559,92.323c-.0324,1.1508,.5521,2.0949,1.3059,2.1089,.7534,.014,1.3908-.9079,1.4233-2.0587,.0326-1.1509-.552-2.0951-1.3055-2.1089-.7536-.014-1.3909,.9078-1.4237,2.0587Z" style="fill:#263238;"></path><path d="M214.79419,92.8678c-.0328,1.151,.55181,2.0951,1.3052,2.109,.7538,.0138,1.3909-.9077,1.42361-2.0587,.03269-1.1509-.55191-2.095-1.30541-2.1088-.7538-.0138-1.3911,.9077-1.4234,2.0585Z" style="fill:#263238;"></path><path d="M211.66769,91.1168s3.4818,5.8209,4.5839,8.1824c-1.6428,1.4017-4.3832,.6567-4.3832,.6567l-.2007-8.8391Z" style="fill:#a24e3f;"></path><path d="M201.45919,87.8983c.17181,.0759,.3793,.0599,.54281-.0606,1.89919-1.3971,3.65169-.8252,3.83409-.7616,.2793,.1025,.5913-.0399,.6964-.3176,.1049-.278-.0376-.5867-.3152-.6893-.0984-.0366-2.44329-.8669-4.8548,.908-.2408,.1769-.2928,.5133-.1163,.7509,.0571,.0774,.13081,.134,.213,.1702Z" style="fill:#263238;"></path><path d="M192.13135,96.39014c-.12842,0-.23779-.09863-.24854-.229-.08154-.96484-.4165-1.896-.96826-2.69336-.35889-.51758-.96387-1.18359-1.80957-1.41699-.76367-.20996-1.59863,.04004-1.99463,.59277-.08105,.11328-.23828,.1377-.34863,.05762-.1123-.08008-.13818-.23633-.05762-.34863,.52148-.72949,1.56445-1.0498,2.53369-.78418,.99023,.27393,1.68213,1.0293,2.08789,1.61475,.60156,.86865,.96631,1.88428,1.05518,2.93604,.01172,.1377-.09033,.2583-.22803,.27002l-.02148,.00098Z" style="opacity:.2;"></path><path d="M220.90509,85.8343c.1006-.0188,.197-.0665,.2764-.1436,.2146-.2078,.2226-.5499,.0174-.7639-2.0575-2.1446-4.49-1.6746-4.6017-1.6676-.2916,.0581-.484,.3415-.4293,.634,.0545,.2916,.3329,.4815,.623,.427,.1005-.0237,1.97911-.3615,3.6305,1.3598,.1293,.1348,.3124,.1865,.4837,.1543Z" style="fill:#263238;"></path><path d="M210.44043,103.74121c-1.77881,0-3.51318-.79541-4.34326-1.99951-.11768-.17041-.07471-.4043,.0957-.52148,.17041-.11865,.40381-.07471,.52148,.0957,.69922,1.01416,2.26562,1.70801,3.82227,1.67432,.17725-.00928,.37793,.16113,.38184,.36816s-.16113,.37793-.36816,.38184c-.03662,.00049-.07324,.00098-.10986,.00098Z" style="fill:#263238;"></path><path d="M197.0596,81.3065c0-.0024-.9318-4.841,2.1011-5.4217,3.033-.5808,12.0767,3.4846,13.0997,1.097,1.0231-2.3876,1.3949-2.0465,1.3949-2.0465,0,0,1.6998,2.0257,1.8678,2.0903,.16791,.0645,1.6626-2.0663-3.8554-4.8836-7.3508-3.753-16.3194-2.9494-20.3203,.2126s-7.1924,8.0399-6.7556,12.8511" style="fill:#263238;"></path></g><g><path d="M151.1063,170.6225s-1.0323,13.3923,3.2374,16.9695c4.2696,3.5772,36.0582,10.4565,56.9447,7.1101,0,0-13.9142-11.8671-23.6192-17.695-2.8327-1.7011-20.8913-5.2592-20.8913-5.2592l.5553-3.1049s-12.0441-.0757-16.2269,1.9795Z" style="fill:#ce7a63;"></path><path d="M209.84569,174.8245s1.3847-2.9891,3.9234-5.5796,7.6161-6.0523,9.2316-6.7447c1.6156-.6924,3.2311,.577,1.0386,2.3079l-.8078,.8078,7.0384-1.3732s1.6162,1.5182-.5763,2.5996l2.1925,.9567s-.4492,1.609-2.2955,2.2377-2.5174,.9191-2.5174,.9191c0,0,.8895,.8709-.149,2.3236-1.0386,1.4527-2.43919,2.5503-2.43919,2.5503l-14.63931-1.0052Z" style="fill:#ce7a63;"></path><path d="M185.6843,175.8297l25.6041,18.8724c-1.3322,.2219-2.89339,.4167-4.5629,.5986-1.404-.1752-24.5629-20.1126-24.5629-20.1126l3.5217,.6416Z" style="opacity:.3;"></path><path d="M212.07009,171.2295l13.0764,4.6002-11.3774-6.5848c-.5907,.5859-1.156,1.2505-1.699,1.9846Z" style="opacity:.3;"></path><path d="M166.7779,171.7479s-4.5197,2.7189-5.892,5.4788c0,0,.206-6.282,6.1991-7.0654l-.3071,1.5866Z" style="opacity:.3;"></path></g></g></g><g id="freepik--Character_2--inject-16"><g><g id="freepik--freepik--Mirror--inject-2--inject-16"><rect x="391.12009" y="99.1588" width=".9452" height="5.8578" style="fill:#407BFF;"></rect><rect x="391.12009" y="79.7622" width=".9452" height="14.7828" style="fill:#407BFF;"></rect><rect x="262.917" y="52.5588" width="125.84" height="188.6838" style="fill:#407BFF;"></rect><rect x="259.37329" y="52.5588" width="3.54371" height="188.6838" style="fill:#407BFF;"></rect><polygon points="347.58239 240.2876 336.46639 240.2876 357.12929 53.4991 368.24529 53.4991 347.58239 240.2876" style="fill:#fff; isolation:isolate; opacity:.2;"></polygon></g><g style="opacity:.2;"><path d="M367.01179,147.001c-.0239-.0092-.0499-.0083-.0742-.0163,.0817,.1504,.17841,.2912,.2449,.4507l-.005,.0041c.3824,.7487,.6908,1.5831,.9274,2.4527,.2088-1.3495-.1911-2.5417-1.0931-2.8912Z" style="fill:#407BFF;"></path><path d="M368.68639,151.2512c.9065-.5312,1.5392-.7869,1.5392-.7869l2.2321-1.001c.4725-.7691,1.3842-1.2284,2.4817-1.4547l-1.9042-7.9944-4.3488,11.237Z" style="fill:#407BFF;"></path><path d="M377.99119,147.6026c-.17,.0402-.324,.1177-.4686,.2137,.7962,.0112,1.5763,.1792,2.2995,.4868-.5503-.5638-1.20909-.8475-1.8309-.7005Z" style="fill:#407BFF;"></path><path d="M363.93049,148.8967c-.0768,.1507-.1539,.3014-.2177,.4649-.4881,1.2506-.4301,2.5143,.0539,3.2991,.171-.9586,.286-1.8749,.2869-2.6831-.0021-.3297-.0417-.6573-.1059-.9807-.006-.0338-.0109-.0657-.0172-.1002Z" style="fill:#407BFF;"></path><path d="M383.02389,151.4739c-.3576-.8233-.8788-1.5231-1.5043-2.0877-.7459-2.089-2.3122-3.4247-3.8424-3.0832-.6326,.1718-1.1654,.5989-1.4705,1.1791l-2.31-9.6941,.2085-.5389c.029-.0747,.087-.1345,.16081-.1657l4.14969-1.7515c.0739-.0312,.1304-.0875,.1596-.1622,.429-1.1031,3.773-10.0505,3.1506-19.4149-.0211-.3172-.4571-.3879-.57289-.0919l-7.78671,19.8993-4.9094-20.6027c-.0944-.3962-.6664-.3849-.7452,.0147-1.4539,7.3839-.3731,14.7907,.2224,17.8929,.1822,.9488,.7488,1.7779,1.5704,2.286l2.7827,1.7211,.2141,.8986-3.4334,8.7743c-.0887,.2265-.3965,.2672-.5325,.0656-.251-.3719-.60539-.6684-1.0258-.8488-.4578-.1848-.9605-.1605-1.4658,.0009-.0352-.0341-.077-.0601-.1131-.0932-.4756-.4731-1.0091-.8357-1.6206-1.0092h-.0005c-.1118-.032-.2088-.0441-.2973-.0452-.0308-.0005-.05629,.0058-.0844,.0088-.052,.0057-.1018,.0143-.1452,.0313-.0298,.0115-.05669,.0264-.08269,.0428-.03141,.0201-.05991,.0437-.086,.0707-.02481,.0252-.04941,.0507-.06971,.0818-.0167,.0258-.0296,.0565-.0434,.086-.0783,.1655-.11489,.3843-.117,.6461l-.0004,.0109c-.0004,.0934,.00351,.1921,.0104,.2945l.0024,.0371c.0078,.1049,.0181,.2126,.032,.3248l.0012,.0095c.057,.4544,.1558,.9569,.2611,1.4578-.2853,.4231-.5442,.8865-.7457,1.4006-.8092,2.0651-.5531,4.1393,.5066,5.1043-.4723,2.1661-1.0586,4.3562-1.1666,5.8925-.0686,.6121-.0858,1.2548-.03889,1.9312l-19.67231,25.5759s-.86869-1.4941-2.18469-3.7336l-.01591-.0272v.0002c-.48709-.829-1.0343-1.7579-1.6224-2.7528l2.8854-2.1888s-17.74209-30.4917-28.2938-36.0406c-.841-.4423-1.5429-.5723-2.132-.458l-1.4417-.3098,.0086-.2756s-5.104-2.8501-8.448-1.6797c-.0304,.0107-.0578,.0606-.084,.1241l-8.711-1.8715-.4495-.0478c-.2805-1.8429-.5433-4.0168-.6962-6.1359,.0701-.0762,.154-.1372,.206-.2325,1.4038,.5223,2.9642,.6152,4.4201,.2631,.7923-.1917,1.5739-.5262,2.1422-1.1105,.5684-.5843,.8891-1.4513,.673-2.2374,.9911,.3334,2.1875-.1254,2.7018-1.0359,.5139-.9106,.2888-2.1721-.50859-2.8485,.66309-.4179,1.20379-1.0992,1.26719-1.8804s-.9045-2.6616-1.6791-2.7815c1.8781-.3704,1.4208-2.9709,.7724-3.8894l-.00349-.0041c.20639-.8384,.35539-1.7033,.42379-2.5976,.1485-1.9403,.1237-4.0869-.0906-6.3122,.3163-.1303,.6274-.2737,.9236-.449,1.567-.9273,2.669-2.4542,3.7247-3.9377,1.2312-1.7301,2.4953-3.5361,2.8667-5.6268-1.1751,.6745-2.5719,.9552-3.9164,.7868,.7926-1.0649,1.2756-2.3574,1.3757-3.6811-1.83449,.9763-4.17549,.078-5.6522-1.3841-1.4766-1.4621-2.37629-3.3946-3.5896-5.0817-2.24469-3.1212-5.6345-5.3993-9.3725-6.2983-3.7381-.8991-8.3803-1.6779-11.7989,.0812-1.695,.8722-5.3702,4.7022-6.135,6.4482l.0078,.0105c-3.4247,2.6473-5.3585,6.8875-5.0024,11.309,.0036,.0475,.0052,.0945,.0092,.1419,.044,.4797,.1058,.9606,.2049,1.4421v.0001c.1319,.3642,.3051,.7389,.5125,1.1218,.4649,1.0263,.9184,2.0445,.9529,2.122l.041,.1029c-1.4859,1.4226-1.97819,3.787-1.08819,5.9575,1.17319,2.8613,3.54319,4.9076,5.90969,5.8699,.6097,2.4081,2.173,5.1553,4.0834,6.827,1.1311,6.1374,1.1651,10.6784,.983,13.4115l-8.7483,2.5047c-2.6097-.3538-5.0209,.8844-6.06779,1.5288v99.7318h59.86469l-.519-7.5851-1.6044-17.3863-1.0907-.6202-2.37759-32.6483,5.48709,11.7871,2.1288-1.6148c5.5859,7.941,13.141,16.2973,19.3623,14.622,10.7823-2.9034,27.1784-38.3911,28.9307-42.2443,.0134-.0043,.0273-.0063,.0407-.0107l7.32341-2.3889c1.31989-.4231,2.53259-1.1264,3.55509-2.062,1.6276-1.4841,2.1307-3.8392,1.2514-5.8588l-1.2656-3.0147Zm-19.2572,1.1868c-.484-.7848-.542-2.0485-.0539-3.2991,.0638-.1635,.1409-.3142,.2177-.4649,.0063,.0345,.0112,.0664,.0172,.1002,.0642,.3234,.1038,.651,.1059,.9807-.0009,.8082-.1159,1.7245-.2869,2.6831Zm4.3382-2.7685c-.2366-.8696-.545-1.704-.9274-2.4527l.005-.0041c-.06649-.1595-.1632-.3003-.2449-.4507,.0243,.008,.0503,.0071,.0742,.0163,.902,.3495,1.3019,1.5417,1.0931,2.8912Zm4.3528-.4289l-2.2321,1.001s-.6327,.2557-1.5392,.7869l4.3488-11.237,1.9042,7.9944c-1.0975,.2263-2.0092,.6856-2.4817,1.4547Zm5.0649-1.647c.1446-.096,.2986-.1735,.4686-.2137,.62181-.147,1.2806,.1367,1.8309,.7005-.7232-.3076-1.5033-.4756-2.2995-.4868Z" style="fill:#407BFF;"></path></g></g><g><g><path d="M261.31886,236.9913c-2.91808-2.04544-6.54327-2.2889-9.99877-2.2306-3.43963,.05803-7.86039,.07547-10.79141,2.15665-2.3848,1.69333-2.88098,4.91423-.43581,6.78655,2.69349,2.06245,6.73793,1.98316,9.87344,1.23817,4.35182-1.03397,8.08914-3.63873,11.67396-6.19807,.38949-.27807,.01537-.92883-.37854-.6476-3.31654,2.3678-6.74731,4.79068-10.71608,5.91899-2.10507,.59846-4.35227,.84155-6.51998,.45753-1.90729-.33789-4.52945-1.25783-4.8259-3.48841-.30907-2.3255,1.91495-3.83276,3.84657-4.44431,2.04659-.64795,4.22827-.86274,6.36292-.96794,3.89721-.19206,8.19897-.26901,11.53107,2.06665,.39608,.27763,.77128-.37231,.37854-.6476h0Z" style="fill:#263238;"></path><path d="M262.37229,235.6048c.2251-3.83813-1.77433-7.2697-3.81978-10.36059-1.07243-1.62056-2.22248-3.20139-3.54819-4.62592-1.14313-1.22834-2.46297-2.441-4.10284-2.9422-1.29905-.39703-2.82214-.28471-3.93521,.54023-1.24412,.92205-1.61418,2.51958-1.49336,3.99522,.26917,3.2877,2.33995,6.29156,4.71455,8.45775,3.12975,2.85507,7.07846,4.54117,10.94055,6.15281,.44489,.18565,.63902-.53975,.19938-.72321-5.69335-2.37583-12.20802-5.31353-14.53397-11.52605-.52164-1.39327-.88254-3.05424-.32064-4.4899,.64626-1.65122,2.49326-2.16555,4.1008-1.71949,1.57185,.43616,2.81727,1.6211,3.90043,2.78517,1.17086,1.25833,2.19821,2.64045,3.15768,4.06431,2.08056,3.08756,4.21749,6.52365,3.99062,10.39186-.02828,.48215,.72182,.48051,.75,0h0Z" style="fill:#263238;"></path></g><g><path d="M244.28019,170.1346s-19.2441,24.3655-20.5175,27.3473c-1.8048,4.2261,2.1926,9.8921,5.1227,11.761,12.6018,8.0382,28.7209,20.3111,28.7209,20.3111l7.1215-9.637-21.8564-21.2006,16.7387-16.1956-15.3299-12.3862Z" style="fill:#eec1bb;"></path><polygon points="238.01159 178.1461 251.39789 190.4666 253.88319 188.0619 239.09009 176.7594 238.01159 178.1461" style="opacity:.3;"></polygon><path d="M242.87139,198.7164s-6.70739,.3708-8.2393,1.4086c0,0,3.0638-4.0027,9.5155-2.6433l-1.2762,1.2347Z" style="opacity:.3;"></path></g><g><path d="M398.64539,151.4739c-1.339-3.0831-4.9238-4.497-8.007-3.1581-.033,.0144-.0659,.029-.0986,.0439l-4.6927,2.1046s-9.0014,3.612-7.9207,12.2295l1.52161,.9954c2.46769,1.609,5.53039,2.0167,8.33309,1.1092l7.3234-2.389c1.3199-.423,2.5326-1.1264,3.5551-2.062h0c1.6276-1.484,2.1307-3.8392,1.25141-5.8587l-1.26561-3.0148Z" style="fill:#eec1bb;"></path><path d="M343.35559,163.5624c1.40941,.9614,14.8396,24.0614,14.8396,24.0614l20.3307-26.4318,9.3706,3.2719s-17.6843,39.519-29.0869,42.5895c-11.40259,3.0705-27.3019-27.5613-27.3019-27.5613l11.8479-15.9297Z" style="fill:#eec1bb;"></path><path d="M383.91319,157.1478c1.1234-1.8486,.2275-11.2909-3.9817-12.4854-1.9481-.5546-.22749,3.7257-.2559,5.3042,0,4.2661-3.1853,11.5611-1.0665,12.1726,2.1188,.6114,3.3701-1.7633,5.3041-4.9914Z" style="fill:#eec1bb;"></path><path d="M383.13109,145.7639c.4204,.1804,.7748,.4769,1.0258,.8488,.136,.2016,.4438,.1609,.5324-.0656l12.0852-30.8842c.1158-.296,.5518-.2253,.5729,.0919,.6223,9.3644-2.7216,18.3118-3.1507,19.4149-.0291,.0747-.0856,.131-.1595,.1622l-4.1497,1.7515c-.0738,.0312-.1319,.091-.1608,.1657l-5.458,14.1034h0c-.9385,2.4316-2.9863,3.9105-4.56469,3.2848-1.57841-.6256-2.09041-3.0858-1.13761-5.5174,.9528-2.4317,3.0147-3.9817,4.5647-3.356Zm-2.97209,7.5794c1.12339,.4408,2.60229-.6257,3.28489-2.3748s.32711-3.5266-.8106-3.9674c-1.1376-.4409-2.6165,.6114-3.2991,2.3605s-.3128,3.5409,.82481,3.9817Z" style="fill:#263238;"></path><path d="M383.13109,145.7639c.4204,.1804,.7748,.4769,1.0258,.8488,.136,.2016,.4438,.1609,.5324-.0656l12.0852-30.8842c.1158-.296,.5518-.2253,.5729,.0919,.6223,9.3644-2.7216,18.3118-3.1507,19.4149-.0291,.0747-.0856,.131-.1595,.1622l-4.1497,1.7515c-.0738,.0312-.1319,.091-.1608,.1657l-5.458,14.1034h0c-.9385,2.4316-2.9863,3.9105-4.56469,3.2848-1.57841-.6256-2.09041-3.0858-1.13761-5.5174,.9528-2.4317,3.0147-3.9817,4.5647-3.356Zm-2.97209,7.5794c1.12339,.4408,2.60229-.6257,3.28489-2.3748s.32711-3.5266-.8106-3.9674c-1.1376-.4409-2.6165,.6114-3.2991,2.3605s-.3128,3.5409,.82481,3.9817Z" style="fill:#fff; opacity:.3;"></path><path d="M393.29869,146.303c-.63269,.1718-1.1654,.5989-1.4706,1.1791l-7.7497-32.5226c-.09439-.3962-.6665-.3849-.7452,.0148-1.454,7.3838-.3731,14.7906,.2224,17.8929,.1822,.9487,.7488,1.7779,1.5703,2.286l2.7828,1.721,3.50731,14.7242h0c.59619,2.5356,2.41919,4.2816,4.06589,3.8858,1.6468-.3958,2.4955-2.7712,1.8992-5.3069-.5962-2.5356-2.3657-4.2574-4.0824-3.8743Zm1.8921,7.9146c-1.1801,.2924-2.5116-.9745-2.933-2.7993-.4215-1.8249,.1774-3.5374,1.3549-3.8157s2.5001,.958,2.933,2.7994c.4328,1.8413-.1074,3.5499-1.3091,3.8817l-.0458-.0661Z" style="fill:#263238;"></path><path d="M393.29869,146.303c-.63269,.1718-1.1654,.5989-1.4706,1.1791l-7.7497-32.5226c-.09439-.3962-.6665-.3849-.7452,.0148-1.454,7.3838-.3731,14.7906,.2224,17.8929,.1822,.9487,.7488,1.7779,1.5703,2.286l2.7828,1.721,3.50731,14.7242h0c.59619,2.5356,2.41919,4.2816,4.06589,3.8858,1.6468-.3958,2.4955-2.7712,1.8992-5.3069-.5962-2.5356-2.3657-4.2574-4.0824-3.8743Zm1.8921,7.9146c-1.1801,.2924-2.5116-.9745-2.933-2.7993-.4215-1.8249,.1774-3.5374,1.3549-3.8157s2.5001,.958,2.933,2.7994c.4328,1.8413-.1074,3.5499-1.3091,3.8817l-.0458-.0661Z" style="fill:#fff; opacity:.3;"></path><path d="M394.73479,148.0753c-2.6165-.5262-5.6881-.2702-6.6835,1.422-.9955,1.6922,.8959,2.3464,1.9908,1.9624,1.095-.3839,5.0767,1.6922,5.6881,.7395,.6115-.9528-.9954-4.1239-.9954-4.1239Z" style="fill:#eec1bb;"></path><path d="M379.93149,144.6624c-1.5927-.455-.7252,2.3606-.3697,4.2661,.0734,.346,.1115,.6986,.1137,1.0523l3.12851-2.5454c-.53441-1.2807-1.57371-2.2841-2.87251-2.773Z" style="fill:#eec1bb;"></path><polygon points="358.19519 187.6238 356.772 195.7549 355.99459 183.8631 358.19519 187.6238" style="opacity:.3;"></polygon></g><polygon points="286.73909 426.5512 282.64179 456.6134 272.84439 457.1084 269.67209 428.1278 286.73909 426.5512" style="fill:#eec1bb;"></polygon><g><path d="M264.25689,470.2282h21.9143s.4781-.9205-.06819-3.3707c-.08331-.3817-.19191-.8014-.33361-1.2588-.0076-.023-.0126-.0458-.0202-.0685-.2049-.6777-.4401-1.512-.6903-2.4123-1.0038-3.6688-2.1847-8.4626-2.1847-8.4626,0,0-3.646-7.8056-7.9115-5.8562-3.7423,1.7094-2.85469,6.602-2.85469,6.602,0,0-.36671,2.8724-3.20371,5.4058-1.7548,1.5651-3.4994,2.7765-4.339,4.7233-.1567,.364-.2805,.7511-.369,1.1707-.0101,.0506-.0204,.1038-.0279,.1566-.1745,.9381-.1642,2.0381,.0885,3.3707Z" style="fill:#263238;"></path><path d="M286.103,466.8575c.54629,2.4502,.06819,3.3707,.06819,3.3707h-21.9143c-.2527-1.3326-.263-2.4326-.0885-3.3707h21.93461Z" style="fill:#fff; opacity:.6;"></path><path d="M272.99029,456.2383c1.2326-.9603,2.8498-.8358,3.9584,.2454,.2982,.2909,.7559-.1661,.4575-.4573-1.3837-1.3495-3.3594-1.4248-4.8733-.2455-.32789,.2556,.1329,.7105,.4574,.4574h0Z" style="fill:#fff;"></path><path d="M272.37159,458.285c1.2326-.9604,2.8499-.8358,3.9585,.2454,.2981,.291,.75591-.1659,.4573-.4573-1.3836-1.3496-3.3591-1.4249-4.8731-.2455-.328,.2554,.13271,.7102,.4573,.4574h0Z" style="fill:#fff;"></path><path d="M271.75029,460.1666c1.23271-.9603,2.8499-.8359,3.9585,.2455,.2981,.2909,.756-.1661,.45721-.4573-1.38361-1.3495-3.35911-1.4248-4.87291-.2456-.328,.2557,.1326,.7103,.4572,.4574h0Z" style="fill:#fff;"></path></g><polygon points="315.73969 427.0608 321.82059 456.7853 331.62919 456.6299 332.87359 427.5027 315.73969 427.0608" style="fill:#eec1bb;"></polygon><g><path d="M340.16689,470.2285l-21.9143-.0195s-.4773-.9208,.0712-3.3705c.0837-.3816,.1926-.8013,.3347-1.2586,.0077-.023,.0127-.0458,.0203-.0684,.2054-.6776,.4414-1.5116,.6924-2.4117,1.0071-3.6679,2.1922-8.4607,2.1922-8.4607,0,0,3.6529-7.8023,7.9167-5.8491,3.7408,1.7126,2.8488,6.6044,2.8488,6.6044,0,0,.3642,2.8728,3.199,5.4087,1.7534,1.5667,3.4969,2.7796,4.3347,4.7272,.15641,.3641,.2799,.7513,.3681,1.171,.01,.0505,.0202,.1037,.0277,.1566,.1737,.9383,.1624,2.0383-.0915,3.3706Z" style="fill:#263238;"></path><path d="M318.32379,466.8385c-.5485,2.4497-.0712,3.3705-.0712,3.3705l21.9143,.0195c.2539-1.3323,.2652-2.4323,.0915-3.3706l-21.9346-.0194Z" style="fill:#fff; opacity:.6;"></path><path d="M331.44559,456.6224c-1.2318-.9614-2.8491-.8383-3.9587,.2419-.2984,.2906-.7557-.1668-.457-.4577,1.3849-1.3483,3.3606-1.4219,4.8734-.2412,.32771,.2558-.1334,.7103-.4577,.457h0Z" style="fill:#fff;"></path><path d="M332.06249,458.6696c-1.2318-.9614-2.8492-.8383-3.9587,.2419-.2985,.2907-.75579-.1666-.4569-.4577,1.3848-1.3483,3.3603-1.4219,4.8733-.2411,.3277,.2556-.1334,.71-.4577,.4569h0Z" style="fill:#fff;"></path><path d="M332.682,460.5518c-1.23171-.9615-2.849-.8385-3.95871,.242-.29829,.2906-.7558-.1668-.4568-.4577,1.3848-1.3484,3.3604-1.4219,4.8732-.2414,.3278,.256-.1333,.7103-.45769,.4571h0Z" style="fill:#fff;"></path></g><g><path d="M336.96449,299.5344c-.1201-24.382-5.7467-64.2268-5.7467-64.2268l-23.2816,1.0665,.0152-.1089h-46.1425s-.8047,40.3423,.6917,64.6785c.0561,3.6858,1.7612,114.6355,4.3941,146.6037l20.2839-.0359c3.87241-22.9,7.209-101.7589,7.209-101.7589,1.2155-10.9285,3.6788-36.4498,5.1989-52.3873,2.33251,15.6949,5.7416,40.8431,6.256,53.7038,0,0,5.4661,78.3422,10.8479,100.9351l20.2417-1.3087c.5082-32.0723,.2206-143.4798,.0324-147.1611Z" style="fill:#407BFF;"></path><path d="M336.96449,299.5344c-.1201-24.382-5.7467-64.2268-5.7467-64.2268l-23.2816,1.0665,.0152-.1089h-46.1425s-.8047,40.3423,.6917,64.6785c.0561,3.6858,1.7612,114.6355,4.3941,146.6037l20.2839-.0359c3.87241-22.9,7.209-101.7589,7.209-101.7589,1.2155-10.9285,3.6788-36.4498,5.1989-52.3873,2.33251,15.6949,5.7416,40.8431,6.256,53.7038,0,0,5.4661,78.3422,10.8479,100.9351l20.2417-1.3087c.5082-32.0723,.2206-143.4798,.0324-147.1611Z" style="opacity:.3;"></path><polygon points="293.75349 359.512 263.62509 359.4329 263.62509 353.4939 294.03959 353.4939 293.75349 359.512" style="opacity:.3;"></polygon><path d="M319.73589,348.9748c3.114,.9625,6.3752,.7641,9.3495-.5665,.4277-.1917,.1901-.9106-.2422-.7172-2.86719,1.2831-5.9605,1.4689-8.9621,.5409-.4518-.1397-.5932,.6043-.1452,.7428h0Z"></path><polygon points="306.407 354.7738 306.72249 358.9109 337.20459 358.1302 337.19939 354.301 306.407 354.7738" style="opacity:.3;"></polygon></g><g><g><polygon points="270.68489 142.9434 292.37509 136.7335 308.15569 138.4105 328.96379 142.881 334.63689 220.7814 262.48179 229.554 270.68489 142.9434" style="fill:#407BFF;"></polygon><path d="M337.31859,194.0461l19.939-15.1244s-17.7421-30.4918-28.2938-36.0407c-8.1827-4.3031-3.838,19.5579,1.3614,36.1421l6.9934,15.023Z" style="fill:#407BFF;"></path><path d="M259.78989,192.5749l-22.29589-17.035s25.37939-34.5955,34.81339-32.5736c6.6055,1.4158,3.7513,19.3006-2.4702,34.0885-2.6639,6.3319-7.8457,11.4375-10.0473,15.5201Z" style="fill:#407BFF;"></path><path d="M266.95149,182.3613c.4209-.6575,1.3759-13.6724,1.3759-13.6724,0,0-4.57039,18.1547-4.4435,17.985,.127-.1696,3.0676-4.3126,3.0676-4.3126Z" style="opacity:.3;"></path></g><path d="M308.35869,250.016c.5716,10.184,8.67931,18.2059,18.4849,18.3578,.47,.0074,.4173-.7497-.0503-.7568-9.409-.1459-17.1588-7.9035-17.706-17.6494-.02729-.4876-.756-.4395-.7286,.0484h0Z"></path><path d="M327.82149,172.0104l4.2427,41.677,3.2356,1.8401,1.6043,17.3863,8.2983,121.2644-88.5318,1.3592c-1.3642-22.5496,7.2613-112.7608,7.2613-112.7608l-4.0243-.7386,.3932-12.5647s11.6498-12.764,11.4564-15.2734c-.1936-2.5095,5.7332-42.21,5.7332-42.21l50.3311,.0205Z" style="fill:#263238;"></path><g><path d="M324.39449,179.5389l1.1739-37.6258s-5.30039-2.9598-8.7731-1.7443c-1.1688,.4092,.6813,39.3701,.6813,39.3701h6.9179Z" style="fill:#263238;"></path><path d="M324.39449,179.5389l1.1739-37.6258s-5.30039-2.9598-8.7731-1.7443c-1.1688,.4092,.6813,39.3701,.6813,39.3701h6.9179Z" style="fill:#fff; opacity:.7;"></path><circle cx="321.53739" cy="176.1858" r="1.4621" style="fill:#263238;"></circle></g><g><path d="M283.82819,138.875s4.1137,26.0462,4.8686,40.0473h-7.0212l-4.82459-38.1415s3.269-2.4085,6.97719-1.9058Z" style="fill:#263238;"></path><path d="M283.82819,138.875s4.1137,26.0462,4.8686,40.0473h-7.0212l-4.82459-38.1415s3.269-2.4085,6.97719-1.9058Z" style="fill:#fff; opacity:.7;"></path></g><path d="M282.77389,175.1233c0,.8155,.66111,1.4766,1.4766,1.4766,.8156,0,1.4767-.6611,1.4767-1.4766,0-.8156-.6611-1.4767-1.4767-1.4767-.81549,0-1.4766,.6611-1.4766,1.4767Z" style="fill:#263238;"></path><g><g><g><path d="M316.24789,238.1815l-.118,.8151,2.8904,.0085c.27871-.8038,.6278-1.6495,1.0352-2.3164,0,0,2.08-.8831,2.7846-3.5666s-1.1862-4.865-3.3959-5.0728c-2.2095-.2077-3.3253,1.9691-3.3647,3.6324-.0286,1.2062,.435,3.6022,.435,3.6022l-.2666,2.8976Zm1.0786-5.9254c-.0098-1.6632,.93751-3.017,2.1158-3.024,1.1784-.0068,2.1416,1.3358,2.1513,2.9989,.0099,1.6632-.9375,3.0171-2.1158,3.024-1.1784,.0069-2.1416-1.3357-2.1513-2.9989Z" style="fill:#407BFF;"></path><path d="M315.031,235.2839s.46349-2.396,.435-3.6022c-.03941-1.6633-1.15521-3.8401-3.36471-3.6324-2.2097,.2078-4.1005,2.3893-3.3959,5.0728,.7045,2.6835,2.78461,3.5666,2.78461,3.5666,.40739,.6669,.75649,1.5126,1.03519,2.3164l2.8904-.0085-.118-.8151-.26659-2.8976Zm-2.96331-.0289c-1.1783-.0069-2.12569-1.3608-2.1159-3.024,.0098-1.6631,.9729-3.0057,2.1513-2.9989,1.1784,.007,2.1257,1.3608,2.11591,3.024-.00971,1.6632-.97291,3.0058-2.15131,2.9989Z" style="fill:#407BFF;"></path></g><path d="M297.30159,239.0051h4.5494c14.50797,0,26.2866,11.77863,26.2866,26.2866v18.5953h-57.12259v-18.59531c0-14.50796,11.77863-26.28659,26.28659-26.28659Z" transform="translate(599.15259 522.8921) rotate(180)" style="opacity:.3;"></path></g><rect x="302.60089" y="223.8535" width="1.74711" height="15.1516" style="fill:#407BFF;"></rect><path d="M294.94459,238.5927v-1.0294h3.8448v-.4711h-3.8448v-1.0293h3.8448v-.4712h-3.8448v-1.0293h3.8448v-.4711h-3.8448v-1.0294h3.8448v-.4711h-3.8448v-1.0293h3.8448v-.4711h-3.8448v-1.0294h3.8448v-.4711h-3.8448v-1.0293h3.8448v-.4712h-3.8448v-1.0293h3.8448v-.4712h-3.8448v-1.0293h3.8448v-1.1677h-4.626c-.7268,0-1.316,.5892-1.316,1.316v13.2972h5.942v-.4124h-3.8448Z" style="fill:#407BFF;"></path><rect x="292.84739" y="186.6751" width="19.164" height="3.1339" rx=".1059" ry=".1059" style="fill:#fff;"></rect></g></g><g><path d="M263.28589,219.0064s6.7184-1.9627,8.6355-1.7013c1.9172,.2614,10.9835,9.8472,10.8511,10.0214-.13249,.1743-.13249,1.597-2.57249,1.0164l.95859,2.5565s-.0871,1.7429-2.44,1.3072c-2.3529-.4358-3.5729-2.2658-3.5729-2.2658l2.96431,3.6519s.97639,2.1609-1.46361,1.9866-5.0311-3.5874-5.0311-3.5874l3.1676,4.571c.2546,.3674,.196,.8669-.1368,1.1653h0c-.2496,.2238-.5999,.288-.9127,.1673-.6007-.2316-1.7681-.8207-3.8825-2.3162-3.57289-2.5272-4.29089-5.2399-4.29089-5.2399,0,0-3.53571,2.7912-7.95371-.7854-3.9057-3.1617,5.6796-10.5476,5.6796-10.5476Z" style="fill:#eec1bb;"></path><polygon points="263.67459 218.8954 260.73759 225.8564 262.01039 217.2811 263.67459 218.8954" style="opacity:.3;"></polygon></g><g><path d="M320.93329,98.3332c.7925-1.0649,1.2756-2.3574,1.37571-3.6811-1.83451,.9763-4.17551,.078-5.65221-1.3841-1.4767-1.462-2.3763-3.3947-3.5895-5.0817-2.2448-3.1212-5.6346-5.3992-9.3727-6.2983-3.738-.8991-8.3802-1.6778-11.7988,.0812-1.695,.8723-5.3702,4.7022-6.135,6.4482l10.7314,14.4243c-.1964-.0042-.1154,.3159,.0286,.4496,.8957,.8323,1.7915,1.6646,2.6873,2.4969,.6732,.6256,1.3575,1.259,2.1741,1.6807,.8786,.4539,1.8683,.6407,2.8471,.7824,3.1896,.4618,6.4403,.5008,9.6402,.1156,1.522-.1832,3.06951-.4753,4.3887-1.256,1.5671-.9273,2.6691-2.4542,3.72481-3.9377,1.23119-1.73,2.49529-3.5361,2.86669-5.6268-1.1751,.6746-2.572,.9552-3.9164,.7868Z" style="fill:#263238;"></path><path d="M291.99789,139.778s1.69811-7.2293-1.41589-20.3215c.00139-.0137,.69569-.2821,.69689-.2961-.4277-1.8305-.8955-3.5258-1.3428-4.9971-.0097-.0426-.0085-.0565-.0085-.0565l17.1267,11.7741c-.6158,4.1081,.4772,12.1574,1.19671,15.5692,0,0,1.932,6.2099-6.19641,6.0809-5.9393-.0939-10.0567-7.753-10.0567-7.753Z" style="fill:#eec1bb;"></path><path d="M297.85009,128.2021c2.1224,2.4296,5.812,3.7979,9.195,3.8699-.04909-.3014-.04-.7536-.0753-1.0531-.0575-.4713-.05279-1.1918-.0793-1.6874-.0273-.6083-.0377-1.2692-.0062-1.8987,.0293-.2497,.1295-.2136,.1588-.4634l.0601-.5136-10.2463-3.4782c-.83089,.6064-.718,3.2513,.9932,5.2245Z"></path><path d="M283.98209,103.0594c-2.4548-11,7.1012-21.129,18.5096-18.4829,11.5794,2.6857,15.7269,18.9339,14.9335,29.2956-.881,11.5121-13.7819,18.7873-23.5901,11.5571-6.5204-4.8067-7.3982-11.3697-9.853-22.3698h0Z" style="fill:#eec1bb;"></path><path d="M280.98029,101.321c.147,.4058,.33771,.8229,.5792,1.252,1.1914,2.1273,2.803,8.3059,6.0944,12.2592-.2756-.5531-.5242-1.1521-.75689-1.8099-.77691-2.1944-1.73931-5.2462-2.73671-8.9257,.8885,.0273,1.52971,.2708,2.1121,.5793,4.24661,2.2505,5.79461,4.3596,7.583,2.2861,1.4628-1.6995-1.5239-8.4098-1.816-11.9066-.434-3.7751,1.4494-11.0653-1.6036-9.0385-.1461,.0966-.5131,.243-1.0315,.4245-6.1354,2.1491-9.7338,8.512-8.424,14.8796h0Z" style="fill:#263238;"></path><path d="M284.63709,105.8142c-.1578-.5578-.3165-1.1264-.4768-1.7176,.8886,.0273,1.52971,.2707,2.1121,.5793,4.24661,2.2505,5.7947,4.3596,7.583,2.2861,1.31661-1.5296-.9656-7.1114-1.6491-10.763l-.0077-.0209c.085,.4242-9.7222,1.8396-11.46859,2.1758-.02591,.9788,.04559,1.9719,.25029,2.9671,.5792,1.2519,1.4742,3.2637,1.4742,3.2637,0,0,.999,.555,2.1826,1.2295Z" style="fill:#fff; opacity:.3;"></path><path d="M299.90639,105.4917c.1013,1.1468,.7914,2.0167,1.5417,1.9431,.75-.0735,1.2761-1.0632,1.1748-2.21-.1012-1.1469-.7915-2.0169-1.5414-1.9431-.7501,.0736-1.2761,1.0631-1.1751,2.21Z" style="fill:#263238;"></path><path d="M311.02289,104.7414c.101,1.147,.7913,2.0169,1.54111,1.9432,.75029-.0737,1.27619-1.0629,1.17519-2.21-.1011-1.1469-.7914-2.0167-1.5414-1.943-.7503,.0738-1.2763,1.063-1.1749,2.2098Z" style="fill:#263238;"></path><path d="M307.71439,103.365s4.1337,5.3776,5.5024,7.5952c-1.469,1.5829-4.2773,1.161-4.2773,1.161l-1.2251-8.7562Z" style="fill:#ce7a63;"></path><path d="M296.96029,99.2897c.1794,.0554,.38371,.0155,.5321-.1232,1.7243-1.608,3.5312-1.2433,3.7198-1.2013,.2893,.0693,.5826-.1083,.6549-.3963,.07191-.2883-.1054-.5784-.39309-.6481-.102-.0249-2.52741-.5775-4.71661,1.4652-.2187,.2037-.2313,.5438-.0285,.7594,.0657,.0702,.1456,.1179,.2314,.1443Z" style="fill:#263238;"></path><path d="M316.04379,98.3987c.0978-.0303,.1881-.0889,.258-.1747,.189-.2313,.15721-.572-.0714-.7607-2.2925-1.8914-4.654-1.1423-4.7642-1.1224-.2828,.0916-.441,.3954-.3528,.6795,.0881,.2834,.38661,.4397,.6684,.3519,.0971-.0352,1.9237-.5888,3.7638,.9293,.144,.1189,.3319,.149,.4982,.0971Z" style="fill:#263238;"></path><path d="M290.35489,115.957c.7187-.7703,1.0848-1.8119,1.2472-2.8528,.362-2.3206-.2377-4.7764-1.6287-6.6688l3.8821,.5266s.546,4.7651,3.6927,5.2102c3.14681,.4451,4.12081-.678,6.7024-.1439,2.5816,.5341,2.8526,1.9813,2.8526,1.9813,0,0,2.0713-.9264,3.9072-.5522s5.3461,2.0978,5.99461,3.0164c.64829,.9186,1.10569,3.519-.77241,3.8894h0c.7746,.1199,1.7425,2.0003,1.6791,2.7815s-.6042,1.4625-1.2672,1.8804c.7974,.6764,1.02251,1.938,.50851,2.8485-.51421,.9105-1.71061,1.3693-2.70171,1.036,.2161,.7859-.1047,1.653-.673,2.2373-.56829,.5843-1.35,.9189-2.14229,1.1105-1.45591,.3521-3.01621,.2592-4.42-.2631-.39251,.7198-1.34771,.8604-2.16571,.9148-1.4917,.0993-3.0262,.1846-4.4472-.2799-1.421-.4646-2.7212-1.6102-2.9176-3.0922-1.2889-.1999-2.6143-.46-3.6877-1.201-1.0733-.741-1.8332-2.0866-1.5086-3.3499,.0604-.235,.1544-.4909,.0487-.7094-.068-.1406-.2055-.2321-.3351-.3195-2.4027-1.6203-4.4494-5.1154-5.0222-7.9563,1.0179,.2717,2.4555,.7264,3.1743-.0439Z" style="fill:#263238;"></path><path d="M302.82689,113.7017s1.7857,1.8876,5.5259,2.8754c0,0-1.3522,2.3852-3.695,1.543-2.8331-1.0186-1.8309-4.4184-1.8309-4.4184Z" style="fill:#fff;"></path><path d="M314.74549,92.5817c-.7976-1.272-1.82649-2.3799-2.7413-3.5703-.8004-1.0415-1.5345-2.1682-2.5895-2.9507-.93769-.6955-2.0681-1.0722-3.182-1.4218-2.2022-.6913-4.4416-1.3227-6.74169-1.5147-2.30021-.192-4.68331,.0774-6.74661,1.1119-.8049,.4036-1.6313,1.0473-1.6889,1.9459l.8822,5.9988c1.138-2.6954,3.04031-2.4882,4.4097-1.2468,.8422,.7634,1.6431,1.5817,2.5903,2.2099,1.7035,1.1297,3.7822,1.6826,5.8218,1.5485-1.0333-1.7219-2.0667-3.4438-3.1001-5.1657,2.241,1.5551,4.4969,3.1189,6.97761,4.253,2.40569,1.0998,4.99829,1.7838,7.31819,3.0547,.151-1.4937-.41219-2.9808-1.2097-4.2527Z" style="fill:#263238;"></path><path d="M281.39849,110.6252c1.1929,2.9093,3.623,4.9824,6.0289,5.9235,3.619,1.4159,4.5768-2.4889,3.9248-6.1202-.5868-3.2683-1.9028-7.1965-5.7054-7.0601-3.7462,.1345-5.6121,3.9309-4.2483,7.2568Z" style="fill:#eec1bb;"></path><path d="M289.38086,110.43994c-.11621,0-.2207-.08154-.24512-.19971-.19434-.9502-.63477-1.83643-1.27441-2.56299-.41699-.47217-1.09473-1.06348-1.96191-1.19775-.77637-.12256-1.58301,.22461-1.91211,.82031-.06641,.12061-.2207,.16309-.33984,.09766-.12109-.06689-.16406-.21875-.09766-.33984,.43359-.78516,1.43262-1.22852,2.42578-1.07227,1.01465,.15723,1.79004,.82715,2.26074,1.36133,.69727,.79199,1.17773,1.75781,1.38965,2.79297,.02734,.13525-.05957,.26758-.19531,.29541-.0166,.00342-.0332,.00488-.0498,.00488Z" style="opacity:.2;"></path></g></g></g><g id="freepik--Speech_Bubble--inject-16"><g><g><path d="M372.84049,62.8735c-9.3276-7.2176-22.7399-5.5074-29.9574,3.8201-5.57209,7.2008-5.8018,16.826-1.3349,24.1663l-1.866,6.1364,6.7522-.576c.0929,.0744,.1745,.1576,.2689,.2306,9.3274,7.2178,22.73971,5.5073,29.9573-3.8202,7.2175-9.3273,5.5072-22.7397-3.8201-29.9572Z" style="fill:#407BFF;"></path><path d="M383.83105,79.78467l-.0127-.00049c-.13867-.00732-.24414-.12451-.2373-.2627,.35742-6.82373-3.00195-13.80029-8.56055-17.77295-.1123-.08057-.1377-.23682-.05762-.34912,.08008-.11328,.23633-.1377,.34863-.05811,5.69336,4.06982,9.13574,11.21631,8.76953,18.20654-.00781,.1333-.11816,.23682-.25,.23682Z" style="fill:#407BFF;"></path><path d="M382.97266,86.05908c-.03223,0-.06445-.00586-.0957-.01904-.12695-.05225-.18848-.19873-.13574-.32617,.38965-.94434,.58301-1.98193,.56055-3-.00293-.1377,.10645-.25244,.24414-.25537h.00586c.13574,0,.24707,.1084,.25,.24463,.02441,1.08643-.18262,2.19336-.59766,3.20117-.04004,.09668-.13281,.15479-.23145,.15479Z" style="fill:#407BFF;"></path></g><path d="M357.87609,88.7215c-.4894-.4709-.7336-1.0445-.7336-1.7208,0-.6759,.24-1.2406,.72051-1.6942,.48009-.4536,1.09369-.6802,1.84079-.6802s1.3607,.2266,1.8408,.6802,.7201,1.0183,.7201,1.6942c0,.6763-.2446,1.2499-.7336,1.7208-.4893,.4716-1.0983,.707-1.8273,.707-.7294,0-1.33879-.2354-1.8277-.707Zm-.6536-18.1818h4.9623l-.82679,12.1924h-3.30841l-.8271-12.1924Z" style="fill:#fff;"></path></g></g></svg>
